<svg xmlns="http://www.w3.org/2000/svg" viewBox="0 0 280 280">
  <defs>
    <linearGradient id="hwBg" x1="0" y1="0" x2="1" y2="1">
      <stop offset="0%" stop-color="#2a1040"/>
      <stop offset="100%" stop-color="#04050a"/>
    </linearGradient>
  </defs>
  <rect width="280" height="280" fill="url(#hwBg)" rx="12"/>
  <rect x="50" y="60" width="180" height="160" rx="18" fill="rgba(249,168,212,.06)" stroke="rgba(249,168,212,.12)" stroke-width="1"/>
  <g transform="translate(140 104)">
    <rect x="-24" y="-20" width="48" height="40" rx="10" fill="rgba(249,168,212,.1)" stroke="rgba(249,168,212,.2)" stroke-width="1.5"/>
    <path d="M-10 0 L-4 6 L4 -4 L10 2" fill="none" stroke="#f9a8d4" stroke-width="2.5" stroke-linecap="round" stroke-linejoin="round" opacity=".9"/>
  </g>
  <g transform="translate(140 170)">
    <rect x="-28" y="-8" width="56" height="16" rx="5" fill="rgba(249,168,212,.08)"/>
    <text x="0" y="4" text-anchor="middle" font-family="monospace" font-size="8" fill="#f9a8d4" letter-spacing="1.5">74.5 kg</text>
  </g>
  <path d="M62 220 Q100 200 140 214 Q180 228 218 208" fill="none" stroke="rgba(249,168,212,.15)" stroke-width="1.5"/>
  <path d="M62 230 Q100 218 140 226 Q180 234 218 220" fill="none" stroke="rgba(249,168,212,.1)" stroke-width="1"/>
  <circle cx="90" cy="76" r="2" fill="#f9a8d4" opacity=".3"/>
  <circle cx="190" cy="68" r="1.5" fill="#f9a8d4" opacity=".25"/>
  <circle cx="204" cy="200" r="2" fill="#f9a8d4" opacity=".2"/>
  <circle cx="62" cy="190" r="1.5" fill="#f9a8d4" opacity=".3"/>
</svg>
