<svg xmlns="http://www.w3.org/2000/svg" viewBox="0 0 280 280">
  <defs>
    <linearGradient id="rgBg" x1="0" y1="0" x2="1" y2="1">
      <stop offset="0%" stop-color="#0a2e1a"/>
      <stop offset="100%" stop-color="#04050a"/>
    </linearGradient>
    <linearGradient id="rgGlow" x1="0" y1="0" x2="0" y2="1">
      <stop offset="0%" stop-color="#6ee7b7" stop-opacity=".3"/>
      <stop offset="100%" stop-color="#6ee7b7" stop-opacity="0"/>
    </linearGradient>
  </defs>
  <rect width="280" height="280" fill="url(#rgBg)" rx="12"/>
  <circle cx="140" cy="140" r="80" fill="none" stroke="rgba(110,231,183,.15)" stroke-width="1"/>
  <circle cx="140" cy="140" r="55" fill="none" stroke="rgba(110,231,183,.12)" stroke-width="1" stroke-dasharray="4 6"/>
  <circle cx="140" cy="140" r="30" fill="url(#rgGlow)"/>
  <g transform="translate(140 140)">
    <rect x="-3" y="-28" width="6" height="56" rx="3" fill="#6ee7b7" opacity=".9"/>
    <rect x="-20" y="-12" width="6" height="24" rx="3" fill="#34d399" opacity=".7" transform="rotate(72)"/>
    <rect x="-20" y="-12" width="6" height="24" rx="3" fill="#34d399" opacity=".7" transform="rotate(144)"/>
    <rect x="-20" y="-12" width="6" height="24" rx="3" fill="#34d399" opacity=".7" transform="rotate(216)"/>
    <rect x="-20" y="-12" width="6" height="24" rx="3" fill="#34d399" opacity=".7" transform="rotate(288)"/>
    <circle cx="0" cy="0" r="8" fill="#6ee7b7" opacity=".6"/>
    <circle cx="0" cy="0" r="3" fill="#fff"/>
  </g>
  <g transform="translate(140 218)">
    <rect x="-48" y="0" width="96" height="20" rx="10" fill="rgba(110,231,183,.12)"/>
    <text x="0" y="14" text-anchor="middle" font-family="monospace" font-size="10" fill="#6ee7b7" letter-spacing="2">RAG PIPELINE</text>
  </g>
  <circle cx="68" cy="68" r="2" fill="#6ee7b7" opacity=".4"/>
  <circle cx="212" cy="86" r="1.5" fill="#6ee7b7" opacity=".3"/>
  <circle cx="44" cy="196" r="1.8" fill="#6ee7b7" opacity=".35"/>
  <circle cx="228" cy="212" r="2.2" fill="#6ee7b7" opacity=".25"/>
</svg>
